<svg height="24" width="24" xmlns="http://www.w3.org/2000/svg"><g transform="matrix(.70711 .70711 -.70711 .70711 740.06 -730.24)"><path d="m10.541 1028.9c-3.3134 0-5.9997 2.6-5.9997 6 0 3.3 2.6863 6 5.9997 6 3.314 0 6-2.7 6-6 0-3.4-2.686-6-6-6zm0 2c1.105 0 2 .9 2 2s-.895 2-2 2c-1.1042 0-1.9997-.9-1.9997-2s.8955-2 1.9997-2z" fill="#f39c12"/><g fill="#f1c40f"><path d="m10 0c-3.3137 0-6 2.6863-6 6s2.6863 6 6 6c3.314 0 6-2.6863 6-6s-2.686-6-6-6zm0 2c1.105 0 2 .8954 2 2s-.895 2-2 2c-1.1046 0-2-.8954-2-2s.8954-2 2-2z" transform="translate(0 1028.4)"/><path d="m7 1039.4h6v2h-6z"/><path d="m8 13v9l2 2 2-2v-1l-2-1 2-1v-1l-1-1 1-1v-3z" transform="translate(0 1028.4)"/></g><g fill="#f39c12"><path d="m11 1041.4v4l1-1v-3zm0 4v2.5l1-.5v-1zm0 3.5v2.5l1-1v-1z"/><path d="m9 1041.4v10l1 1v-4-7z"/></g></g></svg>